<mxfile host="app.diagrams.net" modified="2022-09-01T14:29:10.054Z" agent="5.0 (Windows NT 10.0; Win64; x64) AppleWebKit/537.36 (KHTML, like Gecko) Chrome/104.0.0.0 Safari/537.36" etag="brS8Qy_M5roc9_o9k2Ni" version="20.2.7" type="github" pages="2">
  <diagram id="dZaBB53jgZC2aADFgIOm" name="Supervisor">
    <mxGraphModel dx="782" dy="487" grid="1" gridSize="10" guides="1" tooltips="1" connect="1" arrows="1" fold="1" page="1" pageScale="1" pageWidth="827" pageHeight="1169" math="0" shadow="0">
      <root>
        <mxCell id="0" />
        <mxCell id="1" parent="0" />
        <mxCell id="ua7n5hi1LPknlC4ssncX-50" value="" style="edgeStyle=orthogonalEdgeStyle;rounded=0;orthogonalLoop=1;jettySize=auto;html=1;fontSize=7;" edge="1" parent="1" target="ua7n5hi1LPknlC4ssncX-49">
          <mxGeometry relative="1" as="geometry">
            <mxPoint x="414" y="740" as="sourcePoint" />
          </mxGeometry>
        </mxCell>
        <mxCell id="ua7n5hi1LPknlC4ssncX-44" value="Email" style="sketch=0;outlineConnect=0;fontColor=#232F3E;gradientColor=none;strokeColor=#232F3E;fillColor=#ffffff;dashed=0;verticalLabelPosition=bottom;verticalAlign=top;align=center;html=1;fontSize=12;fontStyle=0;aspect=fixed;shape=mxgraph.aws4.resourceIcon;resIcon=mxgraph.aws4.email;fillOpacity=100;strokeWidth=1;" vertex="1" parent="1">
          <mxGeometry x="384" y="660" width="60" height="60" as="geometry" />
        </mxCell>
        <mxCell id="ua7n5hi1LPknlC4ssncX-1" value="START" style="strokeWidth=1;html=1;shape=mxgraph.flowchart.start_1;whiteSpace=wrap;" vertex="1" parent="1">
          <mxGeometry x="364" y="40" width="100" height="60" as="geometry" />
        </mxCell>
        <mxCell id="ua7n5hi1LPknlC4ssncX-2" value="" style="endArrow=classic;html=1;rounded=0;exitX=0.5;exitY=1;exitDx=0;exitDy=0;exitPerimeter=0;" edge="1" parent="1" source="ua7n5hi1LPknlC4ssncX-1">
          <mxGeometry width="50" height="50" relative="1" as="geometry">
            <mxPoint x="424" y="220" as="sourcePoint" />
            <mxPoint x="414" y="150" as="targetPoint" />
          </mxGeometry>
        </mxCell>
        <mxCell id="ua7n5hi1LPknlC4ssncX-17" value="" style="edgeStyle=orthogonalEdgeStyle;rounded=0;orthogonalLoop=1;jettySize=auto;html=1;fontSize=7;startArrow=none;" edge="1" parent="1" source="ua7n5hi1LPknlC4ssncX-51" target="ua7n5hi1LPknlC4ssncX-16">
          <mxGeometry relative="1" as="geometry" />
        </mxCell>
        <mxCell id="ua7n5hi1LPknlC4ssncX-11" value="&lt;font style=&quot;font-size: 7px;&quot;&gt;Supervisor receives an email&amp;nbsp; with link to appraise staff of the month&lt;/font&gt;" style="rounded=1;whiteSpace=wrap;html=1;absoluteArcSize=1;arcSize=14;strokeWidth=1;" vertex="1" parent="1">
          <mxGeometry x="364" y="150" width="100" height="50" as="geometry" />
        </mxCell>
        <mxCell id="ua7n5hi1LPknlC4ssncX-24" value="" style="edgeStyle=orthogonalEdgeStyle;rounded=0;orthogonalLoop=1;jettySize=auto;html=1;fontSize=8;" edge="1" parent="1" source="ua7n5hi1LPknlC4ssncX-16" target="ua7n5hi1LPknlC4ssncX-23">
          <mxGeometry relative="1" as="geometry" />
        </mxCell>
        <mxCell id="ua7n5hi1LPknlC4ssncX-16" value="&lt;font style=&quot;font-size: 7px;&quot;&gt;Supervisor is redirected to a portal to nominate a staff as staff of the month in his/her department&lt;/font&gt;" style="rounded=1;whiteSpace=wrap;html=1;absoluteArcSize=1;arcSize=14;strokeWidth=1;" vertex="1" parent="1">
          <mxGeometry x="364" y="290" width="100" height="60" as="geometry" />
        </mxCell>
        <mxCell id="ua7n5hi1LPknlC4ssncX-18" value="&lt;h1&gt;&lt;font style=&quot;font-size: 10px;&quot;&gt;Requirements&lt;/font&gt;&lt;/h1&gt;&lt;p style=&quot;font-size: 9px;&quot;&gt;&lt;/p&gt;&lt;font style=&quot;font-size: 8px;&quot;&gt;&lt;span style=&quot;background-color: initial;&quot;&gt;* The email is an automated and scheduled&amp;nbsp; process that repeats once daily every day throughout the last week of the month&lt;/span&gt;&lt;br&gt;&lt;span style=&quot;background-color: initial;&quot;&gt;* The email stops when the supervisor has appraised a staff&lt;/span&gt;&lt;br&gt;&lt;span style=&quot;background-color: initial;&quot;&gt;* The email contains a deep link&amp;nbsp;to the portal for the supervisor to appraise staff&lt;/span&gt;&lt;/font&gt;&lt;br&gt;&lt;p&gt;&lt;/p&gt;" style="text;html=1;strokeColor=none;fillColor=none;spacing=5;spacingTop=-20;whiteSpace=wrap;overflow=hidden;rounded=0;fontSize=7;" vertex="1" parent="1">
          <mxGeometry x="480" y="124.38" width="190" height="101.25" as="geometry" />
        </mxCell>
        <mxCell id="ua7n5hi1LPknlC4ssncX-19" value="&lt;h1&gt;&lt;font style=&quot;font-size: 10px;&quot;&gt;Requirements&lt;/font&gt;&lt;/h1&gt;&lt;p style=&quot;font-size: 9px;&quot;&gt;&lt;/p&gt;&lt;font style=&quot;font-size: 8px;&quot;&gt;&lt;span style=&quot;background-color: initial;&quot;&gt;&lt;b&gt;Page 1&lt;/b&gt;&lt;br&gt;* User&#39;s name, email and department is displayed&lt;br&gt;&lt;/span&gt;&lt;/font&gt;* The user can search for staff in the organization&lt;br&gt;* Input section to provide justification for staff&amp;nbsp; nomination&lt;br&gt;* User can either nominate now or opt to be reminded later by the process&lt;br&gt;&lt;span style=&quot;background-color: initial;&quot;&gt;&lt;b&gt;Page 2&lt;/b&gt;&lt;br&gt;* Supervisor can view previous nominations and justifications and summary stats&lt;/span&gt;&lt;br&gt;&lt;p&gt;&lt;/p&gt;" style="text;html=1;strokeColor=none;fillColor=none;spacing=5;spacingTop=-20;whiteSpace=wrap;overflow=hidden;rounded=0;fontSize=8;" vertex="1" parent="1">
          <mxGeometry x="480" y="239.38" width="190" height="130.62" as="geometry" />
        </mxCell>
        <mxCell id="ua7n5hi1LPknlC4ssncX-23" value="&lt;font style=&quot;font-size: 7px;&quot;&gt;Nominate/Defer&lt;/font&gt;" style="rhombus;whiteSpace=wrap;html=1;rounded=1;arcSize=14;strokeWidth=1;" vertex="1" parent="1">
          <mxGeometry x="374" y="390" width="80" height="80" as="geometry" />
        </mxCell>
        <mxCell id="ua7n5hi1LPknlC4ssncX-26" value="" style="endArrow=classic;html=1;rounded=0;fontSize=7;exitX=0.5;exitY=0;exitDx=0;exitDy=0;entryX=0;entryY=0.5;entryDx=0;entryDy=0;startArrow=none;exitPerimeter=0;" edge="1" parent="1" source="ua7n5hi1LPknlC4ssncX-28" target="ua7n5hi1LPknlC4ssncX-11">
          <mxGeometry width="50" height="50" relative="1" as="geometry">
            <mxPoint x="290" y="400" as="sourcePoint" />
            <mxPoint x="280" y="430" as="targetPoint" />
            <Array as="points">
              <mxPoint x="268" y="175" />
            </Array>
          </mxGeometry>
        </mxCell>
        <mxCell id="ua7n5hi1LPknlC4ssncX-27" value="Defer" style="text;html=1;strokeColor=none;fillColor=none;align=center;verticalAlign=middle;whiteSpace=wrap;rounded=0;fontSize=7;" vertex="1" parent="1">
          <mxGeometry x="334" y="410" width="40" height="20" as="geometry" />
        </mxCell>
        <mxCell id="ua7n5hi1LPknlC4ssncX-28" value="24 hours" style="strokeWidth=1;html=1;shape=mxgraph.flowchart.delay;whiteSpace=wrap;fontSize=7;" vertex="1" parent="1">
          <mxGeometry x="240" y="300" width="56" height="24.37" as="geometry" />
        </mxCell>
        <mxCell id="ua7n5hi1LPknlC4ssncX-29" value="" style="endArrow=none;html=1;rounded=0;fontSize=7;exitX=0;exitY=0.5;exitDx=0;exitDy=0;entryX=0.5;entryY=1;entryDx=0;entryDy=0;entryPerimeter=0;" edge="1" parent="1" source="ua7n5hi1LPknlC4ssncX-23" target="ua7n5hi1LPknlC4ssncX-28">
          <mxGeometry width="50" height="50" relative="1" as="geometry">
            <mxPoint x="374" y="430" as="sourcePoint" />
            <mxPoint x="318" y="340" as="targetPoint" />
            <Array as="points">
              <mxPoint x="318" y="430" />
              <mxPoint x="268" y="430" />
            </Array>
          </mxGeometry>
        </mxCell>
        <mxCell id="ua7n5hi1LPknlC4ssncX-45" value="" style="edgeStyle=orthogonalEdgeStyle;rounded=0;orthogonalLoop=1;jettySize=auto;html=1;fontSize=7;" edge="1" parent="1" source="ua7n5hi1LPknlC4ssncX-36" target="ua7n5hi1LPknlC4ssncX-44">
          <mxGeometry relative="1" as="geometry" />
        </mxCell>
        <mxCell id="ua7n5hi1LPknlC4ssncX-36" value="&lt;br&gt;Data is committed to Sharepoint" style="strokeWidth=1;html=1;shape=mxgraph.flowchart.database;whiteSpace=wrap;fontSize=7;" vertex="1" parent="1">
          <mxGeometry x="384" y="560" width="60" height="60" as="geometry" />
        </mxCell>
        <mxCell id="ua7n5hi1LPknlC4ssncX-37" value="Nominate" style="text;html=1;strokeColor=none;fillColor=none;align=center;verticalAlign=middle;whiteSpace=wrap;rounded=0;fontSize=7;" vertex="1" parent="1">
          <mxGeometry x="414" y="470" width="40" height="10" as="geometry" />
        </mxCell>
        <mxCell id="ua7n5hi1LPknlC4ssncX-38" value="Cloud" style="ellipse;shape=cloud;whiteSpace=wrap;html=1;align=center;fontSize=7;strokeWidth=1;" vertex="1" parent="1">
          <mxGeometry x="364" y="490" width="96" height="50" as="geometry" />
        </mxCell>
        <mxCell id="ua7n5hi1LPknlC4ssncX-42" value="" style="endArrow=classic;html=1;rounded=0;fontSize=7;entryX=0.517;entryY=0.096;entryDx=0;entryDy=0;entryPerimeter=0;" edge="1" parent="1" target="ua7n5hi1LPknlC4ssncX-38">
          <mxGeometry width="50" height="50" relative="1" as="geometry">
            <mxPoint x="414" y="470" as="sourcePoint" />
            <mxPoint x="480" y="480" as="targetPoint" />
          </mxGeometry>
        </mxCell>
        <mxCell id="ua7n5hi1LPknlC4ssncX-43" value="" style="endArrow=classic;html=1;rounded=0;fontSize=7;entryX=0.5;entryY=0;entryDx=0;entryDy=0;entryPerimeter=0;" edge="1" parent="1" target="ua7n5hi1LPknlC4ssncX-36">
          <mxGeometry width="50" height="50" relative="1" as="geometry">
            <mxPoint x="414" y="540" as="sourcePoint" />
            <mxPoint x="480" y="480" as="targetPoint" />
          </mxGeometry>
        </mxCell>
        <mxCell id="ua7n5hi1LPknlC4ssncX-47" value="&lt;h1&gt;&lt;font style=&quot;font-size: 10px;&quot;&gt;Requirements&lt;/font&gt;&lt;/h1&gt;&lt;p style=&quot;font-size: 9px;&quot;&gt;&lt;/p&gt;The staff gets an email notification of nomination with justification; the supervisor and HR must be in CC.&amp;nbsp;&lt;br&gt;&lt;br&gt;&lt;br&gt;&lt;p&gt;&lt;/p&gt;" style="text;html=1;strokeColor=none;fillColor=none;spacing=5;spacingTop=-20;whiteSpace=wrap;overflow=hidden;rounded=0;fontSize=7;" vertex="1" parent="1">
          <mxGeometry x="480" y="662.35" width="190" height="55.31" as="geometry" />
        </mxCell>
        <mxCell id="ua7n5hi1LPknlC4ssncX-49" value="&lt;br&gt;END" style="ellipse;whiteSpace=wrap;html=1;verticalAlign=top;fillColor=#ffffff;strokeColor=#232F3E;fontColor=#232F3E;sketch=0;gradientColor=none;dashed=0;fontStyle=0;" vertex="1" parent="1">
          <mxGeometry x="356" y="810" width="116" height="50" as="geometry" />
        </mxCell>
        <mxCell id="ua7n5hi1LPknlC4ssncX-51" value="Supervisor &lt;br&gt;department data" style="strokeWidth=1;html=1;shape=mxgraph.flowchart.direct_data;whiteSpace=wrap;fontSize=7;" vertex="1" parent="1">
          <mxGeometry x="374" y="225.63" width="80" height="40" as="geometry" />
        </mxCell>
        <mxCell id="ua7n5hi1LPknlC4ssncX-52" value="" style="edgeStyle=orthogonalEdgeStyle;rounded=0;orthogonalLoop=1;jettySize=auto;html=1;fontSize=7;endArrow=none;" edge="1" parent="1" source="ua7n5hi1LPknlC4ssncX-11" target="ua7n5hi1LPknlC4ssncX-51">
          <mxGeometry relative="1" as="geometry">
            <mxPoint x="414" y="200" as="sourcePoint" />
            <mxPoint x="414" y="282.19000000000005" as="targetPoint" />
          </mxGeometry>
        </mxCell>
      </root>
    </mxGraphModel>
  </diagram>
  <diagram name="HR" id="BvXCkNZNle1fVi9V8Gtn">
    <mxGraphModel dx="920" dy="573" grid="1" gridSize="10" guides="1" tooltips="1" connect="1" arrows="1" fold="1" page="1" pageScale="1" pageWidth="827" pageHeight="1169" math="0" shadow="0">
      <root>
        <mxCell id="RNKwhHn3geXSSpIhx5N0-0" />
        <mxCell id="RNKwhHn3geXSSpIhx5N0-1" parent="RNKwhHn3geXSSpIhx5N0-0" />
        <mxCell id="RNKwhHn3geXSSpIhx5N0-2" value="" style="edgeStyle=orthogonalEdgeStyle;rounded=0;orthogonalLoop=1;jettySize=auto;html=1;fontSize=7;" edge="1" parent="RNKwhHn3geXSSpIhx5N0-1" target="RNKwhHn3geXSSpIhx5N0-24">
          <mxGeometry relative="1" as="geometry">
            <mxPoint x="414" y="740" as="sourcePoint" />
          </mxGeometry>
        </mxCell>
        <mxCell id="RNKwhHn3geXSSpIhx5N0-3" value="Email" style="sketch=0;outlineConnect=0;fontColor=#232F3E;gradientColor=none;strokeColor=#232F3E;fillColor=#ffffff;dashed=0;verticalLabelPosition=bottom;verticalAlign=top;align=center;html=1;fontSize=12;fontStyle=0;aspect=fixed;shape=mxgraph.aws4.resourceIcon;resIcon=mxgraph.aws4.email;fillOpacity=100;strokeWidth=1;" vertex="1" parent="RNKwhHn3geXSSpIhx5N0-1">
          <mxGeometry x="384" y="660" width="60" height="60" as="geometry" />
        </mxCell>
        <mxCell id="RNKwhHn3geXSSpIhx5N0-4" value="START" style="strokeWidth=1;html=1;shape=mxgraph.flowchart.start_1;whiteSpace=wrap;" vertex="1" parent="RNKwhHn3geXSSpIhx5N0-1">
          <mxGeometry x="364" y="40" width="100" height="60" as="geometry" />
        </mxCell>
        <mxCell id="RNKwhHn3geXSSpIhx5N0-5" value="" style="endArrow=classic;html=1;rounded=0;exitX=0.5;exitY=1;exitDx=0;exitDy=0;exitPerimeter=0;" edge="1" parent="RNKwhHn3geXSSpIhx5N0-1" source="RNKwhHn3geXSSpIhx5N0-4">
          <mxGeometry width="50" height="50" relative="1" as="geometry">
            <mxPoint x="424" y="220" as="sourcePoint" />
            <mxPoint x="414" y="150" as="targetPoint" />
          </mxGeometry>
        </mxCell>
        <mxCell id="RNKwhHn3geXSSpIhx5N0-6" value="" style="edgeStyle=orthogonalEdgeStyle;rounded=0;orthogonalLoop=1;jettySize=auto;html=1;fontSize=7;startArrow=none;" edge="1" parent="RNKwhHn3geXSSpIhx5N0-1" target="RNKwhHn3geXSSpIhx5N0-9">
          <mxGeometry relative="1" as="geometry">
            <mxPoint x="414" y="265.63" as="sourcePoint" />
          </mxGeometry>
        </mxCell>
        <mxCell id="RNKwhHn3geXSSpIhx5N0-7" value="&lt;font style=&quot;font-size: 7px;&quot;&gt;HR Officer receives an email&amp;nbsp; with link to view nominated staff members&lt;/font&gt;" style="rounded=1;whiteSpace=wrap;html=1;absoluteArcSize=1;arcSize=14;strokeWidth=1;" vertex="1" parent="RNKwhHn3geXSSpIhx5N0-1">
          <mxGeometry x="364" y="150" width="100" height="50" as="geometry" />
        </mxCell>
        <mxCell id="RNKwhHn3geXSSpIhx5N0-8" value="" style="edgeStyle=orthogonalEdgeStyle;rounded=0;orthogonalLoop=1;jettySize=auto;html=1;fontSize=8;" edge="1" parent="RNKwhHn3geXSSpIhx5N0-1" source="RNKwhHn3geXSSpIhx5N0-9" target="RNKwhHn3geXSSpIhx5N0-12">
          <mxGeometry relative="1" as="geometry" />
        </mxCell>
        <mxCell id="RNKwhHn3geXSSpIhx5N0-9" value="&lt;font style=&quot;font-size: 7px;&quot;&gt;HR Officer is redirected to a portal to view nominees by department and date&lt;/font&gt;" style="rounded=1;whiteSpace=wrap;html=1;absoluteArcSize=1;arcSize=14;strokeWidth=1;" vertex="1" parent="RNKwhHn3geXSSpIhx5N0-1">
          <mxGeometry x="364" y="290" width="100" height="60" as="geometry" />
        </mxCell>
        <mxCell id="RNKwhHn3geXSSpIhx5N0-10" value="&lt;h1&gt;&lt;font style=&quot;font-size: 10px;&quot;&gt;Requirements&lt;/font&gt;&lt;/h1&gt;&lt;p style=&quot;font-size: 9px;&quot;&gt;&lt;/p&gt;&lt;font style=&quot;font-size: 8px;&quot;&gt;&lt;span style=&quot;background-color: initial;&quot;&gt;* The email is an automated and scheduled&amp;nbsp; process that repeats on the last day of the month&lt;/span&gt;&lt;br&gt;&lt;span style=&quot;background-color: initial;&quot;&gt;* The email contains a deep link&amp;nbsp;to the portal for the HR Officer to view nominees, their departments, supervisor, justifications and date of appraisal&lt;/span&gt;&lt;/font&gt;&lt;br&gt;&lt;p&gt;&lt;/p&gt;" style="text;html=1;strokeColor=none;fillColor=none;spacing=5;spacingTop=-20;whiteSpace=wrap;overflow=hidden;rounded=0;fontSize=7;" vertex="1" parent="RNKwhHn3geXSSpIhx5N0-1">
          <mxGeometry x="480" y="124.38" width="190" height="85.62" as="geometry" />
        </mxCell>
        <mxCell id="4rOoU52_JXbYQ4bwxEHW-1" value="" style="edgeStyle=orthogonalEdgeStyle;rounded=0;orthogonalLoop=1;jettySize=auto;html=1;fontSize=7;" edge="1" parent="RNKwhHn3geXSSpIhx5N0-1" source="RNKwhHn3geXSSpIhx5N0-12" target="4rOoU52_JXbYQ4bwxEHW-0">
          <mxGeometry relative="1" as="geometry" />
        </mxCell>
        <mxCell id="RNKwhHn3geXSSpIhx5N0-12" value="&lt;font style=&quot;font-size: 7px;&quot;&gt;Export list&lt;/font&gt;" style="rhombus;whiteSpace=wrap;html=1;rounded=1;arcSize=14;strokeWidth=1;" vertex="1" parent="RNKwhHn3geXSSpIhx5N0-1">
          <mxGeometry x="374" y="390" width="80" height="80" as="geometry" />
        </mxCell>
        <mxCell id="RNKwhHn3geXSSpIhx5N0-17" value="" style="edgeStyle=orthogonalEdgeStyle;rounded=0;orthogonalLoop=1;jettySize=auto;html=1;fontSize=7;" edge="1" parent="RNKwhHn3geXSSpIhx5N0-1" source="RNKwhHn3geXSSpIhx5N0-18" target="RNKwhHn3geXSSpIhx5N0-3">
          <mxGeometry relative="1" as="geometry" />
        </mxCell>
        <mxCell id="RNKwhHn3geXSSpIhx5N0-18" value="&lt;br&gt;&lt;br&gt;Data is retrieved from Sharepoint;&lt;br&gt;Telemetry data is recorded from user" style="strokeWidth=1;html=1;shape=mxgraph.flowchart.database;whiteSpace=wrap;fontSize=7;" vertex="1" parent="RNKwhHn3geXSSpIhx5N0-1">
          <mxGeometry x="384" y="560" width="60" height="70" as="geometry" />
        </mxCell>
        <mxCell id="RNKwhHn3geXSSpIhx5N0-19" value="Yes" style="text;html=1;strokeColor=none;fillColor=none;align=center;verticalAlign=middle;whiteSpace=wrap;rounded=0;fontSize=7;" vertex="1" parent="RNKwhHn3geXSSpIhx5N0-1">
          <mxGeometry x="414" y="470" width="40" height="10" as="geometry" />
        </mxCell>
        <mxCell id="RNKwhHn3geXSSpIhx5N0-20" value="Cloud" style="ellipse;shape=cloud;whiteSpace=wrap;html=1;align=center;fontSize=7;strokeWidth=1;" vertex="1" parent="RNKwhHn3geXSSpIhx5N0-1">
          <mxGeometry x="364" y="490" width="96" height="50" as="geometry" />
        </mxCell>
        <mxCell id="RNKwhHn3geXSSpIhx5N0-21" value="" style="endArrow=classic;html=1;rounded=0;fontSize=7;entryX=0.517;entryY=0.096;entryDx=0;entryDy=0;entryPerimeter=0;" edge="1" parent="RNKwhHn3geXSSpIhx5N0-1" target="RNKwhHn3geXSSpIhx5N0-20">
          <mxGeometry width="50" height="50" relative="1" as="geometry">
            <mxPoint x="414" y="470" as="sourcePoint" />
            <mxPoint x="480" y="480" as="targetPoint" />
          </mxGeometry>
        </mxCell>
        <mxCell id="RNKwhHn3geXSSpIhx5N0-22" value="" style="endArrow=classic;html=1;rounded=0;fontSize=7;entryX=0.5;entryY=0;entryDx=0;entryDy=0;entryPerimeter=0;" edge="1" parent="RNKwhHn3geXSSpIhx5N0-1" target="RNKwhHn3geXSSpIhx5N0-18">
          <mxGeometry width="50" height="50" relative="1" as="geometry">
            <mxPoint x="414" y="540" as="sourcePoint" />
            <mxPoint x="480" y="480" as="targetPoint" />
          </mxGeometry>
        </mxCell>
        <mxCell id="RNKwhHn3geXSSpIhx5N0-23" value="&lt;h1&gt;&lt;font style=&quot;font-size: 10px;&quot;&gt;Requirements&lt;/font&gt;&lt;/h1&gt;&lt;p style=&quot;font-size: 9px;&quot;&gt;&lt;/p&gt;HR Officer gets an email attachment with staff list in excel format&lt;br&gt;&lt;br&gt;&lt;br&gt;&lt;p&gt;&lt;/p&gt;" style="text;html=1;strokeColor=none;fillColor=none;spacing=5;spacingTop=-20;whiteSpace=wrap;overflow=hidden;rounded=0;fontSize=7;" vertex="1" parent="RNKwhHn3geXSSpIhx5N0-1">
          <mxGeometry x="480" y="662.35" width="190" height="55.31" as="geometry" />
        </mxCell>
        <mxCell id="RNKwhHn3geXSSpIhx5N0-24" value="&lt;br&gt;END" style="ellipse;whiteSpace=wrap;html=1;verticalAlign=top;fillColor=#ffffff;strokeColor=#232F3E;fontColor=#232F3E;sketch=0;gradientColor=none;dashed=0;fontStyle=0;" vertex="1" parent="RNKwhHn3geXSSpIhx5N0-1">
          <mxGeometry x="356" y="810" width="116" height="50" as="geometry" />
        </mxCell>
        <mxCell id="RNKwhHn3geXSSpIhx5N0-26" value="" style="edgeStyle=orthogonalEdgeStyle;rounded=0;orthogonalLoop=1;jettySize=auto;html=1;fontSize=7;endArrow=none;" edge="1" parent="RNKwhHn3geXSSpIhx5N0-1" source="RNKwhHn3geXSSpIhx5N0-7">
          <mxGeometry relative="1" as="geometry">
            <mxPoint x="414" y="200" as="sourcePoint" />
            <mxPoint x="414" y="270" as="targetPoint" />
          </mxGeometry>
        </mxCell>
        <mxCell id="4rOoU52_JXbYQ4bwxEHW-0" value="&lt;font style=&quot;font-size: 9px;&quot;&gt;END&lt;/font&gt;" style="ellipse;whiteSpace=wrap;html=1;rounded=1;arcSize=14;strokeWidth=1;" vertex="1" parent="RNKwhHn3geXSSpIhx5N0-1">
          <mxGeometry x="542" y="405" width="66" height="50" as="geometry" />
        </mxCell>
        <mxCell id="4rOoU52_JXbYQ4bwxEHW-2" value="No" style="text;html=1;strokeColor=none;fillColor=none;align=center;verticalAlign=middle;whiteSpace=wrap;rounded=0;fontSize=7;" vertex="1" parent="RNKwhHn3geXSSpIhx5N0-1">
          <mxGeometry x="460" y="420" width="40" height="10" as="geometry" />
        </mxCell>
      </root>
    </mxGraphModel>
  </diagram>
</mxfile>
